<?xml version="1.0" encoding="utf-8"?>
<!-- Generator: Adobe Illustrator 16.0.0, SVG Export Plug-In . SVG Version: 6.00 Build 0)  -->
<!DOCTYPE svg PUBLIC "-//W3C//DTD SVG 1.1//EN" "http://www.w3.org/Graphics/SVG/1.1/DTD/svg11.dtd">
<svg version="1.1" id="Layer_1" xmlns="http://www.w3.org/2000/svg" xmlns:xlink="http://www.w3.org/1999/xlink" x="0px" y="0px"
	 width="78.025px" height="80.373px" viewBox="0 0 78.025 80.373" enable-background="new 0 0 78.025 80.373" xml:space="preserve">
<rect x="-138.392" y="86.841" fill="none" width="87.063" height="92.04"/>
<g>
	<g>
		<path fill="#000000" d="M47.39,6.428C36.771,16.84,26.152,27.252,15.533,37.665c-3.028,2.968,1.661,7.572,4.689,4.6
			C30.841,31.853,41.461,21.44,52.08,11.028C55.113,8.059,50.419,3.458,47.39,6.428L47.39,6.428z"/>
	</g>
</g>
<g>
	<g>
		<path fill="#000000" d="M52.27,69.862C41.419,59.52,30.566,49.176,19.713,38.833c-3.094-2.95-7.892,1.62-4.792,4.57
			c10.853,10.343,21.706,20.687,32.558,31.03C50.571,77.384,55.366,72.815,52.27,69.862L52.27,69.862z"/>
	</g>
</g>
</svg>
