<?xml version="1.0" encoding="utf-8"?>
<!-- Generator: Adobe Illustrator 16.0.0, SVG Export Plug-In . SVG Version: 6.00 Build 0)  -->
<!DOCTYPE svg PUBLIC "-//W3C//DTD SVG 1.1//EN" "http://www.w3.org/Graphics/SVG/1.1/DTD/svg11.dtd">
<svg version="1.1" id="Layer_1" xmlns="http://www.w3.org/2000/svg" xmlns:xlink="http://www.w3.org/1999/xlink" x="0px" y="0px"
	 width="78.025px" height="80.373px" viewBox="0 0 78.025 80.373" enable-background="new 0 0 78.025 80.373" xml:space="preserve">
<rect x="-138.392" y="86.841" fill="none" width="87.063" height="92.04"/>
<g>
	<g>
		<path fill="#000000" d="M24.796,73.428C35.415,63.016,46.034,52.603,56.653,42.19c3.028-2.968-1.661-7.571-4.688-4.6
			C41.345,48.003,30.725,58.415,20.106,68.827C17.073,71.797,21.767,76.397,24.796,73.428L24.796,73.428z"/>
	</g>
</g>
<g>
	<g>
		<path fill="#000000" d="M19.916,9.993C30.767,20.336,41.621,30.68,52.473,41.022c3.095,2.949,7.893-1.621,4.792-4.57
			C46.413,26.109,35.56,15.766,24.708,5.422C21.615,2.472,16.82,7.04,19.916,9.993L19.916,9.993z"/>
	</g>
</g>
</svg>
